<svg xmlns="http://www.w3.org/2000/svg" xmlns:xlink="http://www.w3.org/1999/xlink" width="64" zoomAndPan="magnify" viewBox="0 0 48 48" height="64" preserveAspectRatio="xMidYMid meet" version="1.0"><defs><clipPath id="86c51a24fb"><path d="M 3 0 L 41.5 0 L 41.5 47 L 3 47 Z M 3 0 " clip-rule="nonzero"/></clipPath><clipPath id="f812c6b250"><path d="M 8.972656 7.179688 L 41.464844 7.179688 L 41.464844 42.152344 L 8.972656 42.152344 Z M 8.972656 7.179688 " clip-rule="nonzero"/></clipPath></defs><g clip-path="url(#86c51a24fb)"><path fill="#f8e505" d="M 39.820312 40.992188 C 38.617188 42.445312 35.875 43.417969 34.214844 44.097656 C 27.089844 47.023438 19.257812 46.394531 12.179688 43.632812 C 8.429688 42.171875 5.824219 40.921875 4.507812 37.292969 C 2.597656 32.035156 4.160156 26.195312 6.558594 21.371094 C 7.042969 20.398438 7.6875 19.234375 8.203125 18.414062 C 9.84375 15.789062 10.859375 15.4375 12.910156 17.945312 C 13.90625 19.160156 18.035156 24.515625 20.261719 23.109375 C 21.738281 22.175781 16.4375 17.714844 15.875 16.640625 C 14.035156 13.109375 13.058594 9.1875 14.519531 7.636719 C 17.191406 4.808594 18.480469 3.085938 22.71875 1.484375 C 22.375 1.207031 21.519531 0.589844 21.808594 0 C 28.382812 0.359375 32.460938 0.648438 35.289062 7.367188 C 35.289062 7.367188 36.421875 10.757812 36.1875 11.929688 C 35.957031 13.101562 33.890625 17.707031 33.890625 17.707031 C 31.332031 23.835938 40.226562 26.753906 40.976562 32.972656 C 41.027344 35.191406 41.375 39.113281 39.820312 40.992188 " fill-opacity="1" fill-rule="nonzero"/></g><path fill="#ffffff" d="M 29.890625 6.90625 C 29.707031 7.101562 29.335938 7.046875 29.054688 6.78125 C 28.773438 6.519531 28.691406 6.152344 28.871094 5.957031 C 29.050781 5.761719 29.425781 5.816406 29.707031 6.078125 C 29.988281 6.339844 30.070312 6.710938 29.890625 6.90625 " fill-opacity="1" fill-rule="nonzero"/><g clip-path="url(#f812c6b250)"><path fill="#ea7e16" d="M 17.878906 41.015625 C 16.988281 40.699219 16.003906 40.222656 15.382812 39.484375 C 15.125 39.183594 14.90625 38.867188 14.816406 38.472656 C 14.769531 38.269531 14.96875 37.363281 14.90625 37.28125 C 14.621094 36.886719 12.886719 36.753906 12.34375 36.445312 C 11.484375 35.957031 10.773438 35.175781 10.589844 34.175781 C 10.410156 33.195312 10.75 32.253906 11.472656 31.570312 C 12.425781 30.667969 12.480469 31.105469 11.835938 29.875 C 11.398438 29.03125 10.988281 28.0625 10.917969 27.097656 C 10.886719 26.699219 11.042969 24.824219 11.542969 24.792969 C 10.019531 24.886719 9.3125 26.070312 9.355469 27.464844 C 9.394531 28.757812 10.617188 29.929688 10.660156 31.046875 C 10.6875 31.789062 10.644531 31.398438 9.921875 32.078125 C 9.542969 32.4375 9.238281 32.886719 9.085938 33.390625 C 8.652344 34.855469 9.546875 36.246094 10.792969 36.953125 C 11.402344 37.300781 12.21875 37.289062 12.789062 37.621094 C 13.675781 38.140625 13.035156 37.640625 13.207031 38.761719 C 13.390625 39.929688 14.5 40.679688 15.476562 41.164062 C 18.527344 42.6875 22.273438 42.234375 25.339844 41 C 22.878906 41.691406 20.328125 41.886719 17.878906 41.015625 Z M 41.425781 9.40625 C 41.292969 10.3125 40.945312 11.265625 40.277344 11.925781 C 40.140625 12.0625 39.003906 12.738281 39.144531 12.792969 C 41.488281 13.667969 40.152344 14.71875 38.429688 15.285156 C 37.15625 15.703125 35.753906 15.933594 34.695312 16.820312 C 33.714844 17.636719 33.882812 17.769531 32.472656 17.441406 C 31.347656 17.179688 30.234375 16.789062 29.261719 16.15625 C 27.785156 15.191406 25.910156 12.957031 26.863281 11.023438 C 27.726562 9.269531 30.539062 11.140625 31.96875 9.664062 C 32.664062 8.941406 32.925781 7.597656 34.015625 7.269531 C 34.773438 7.039062 35.863281 7.519531 36.648438 7.574219 C 38.242188 7.683594 41.882812 6.222656 41.425781 9.40625 " fill-opacity="1" fill-rule="nonzero"/></g><path fill="#110f0d" d="M 27.429688 33.507812 C 27.402344 33.632812 27.292969 33.722656 27.171875 33.722656 C 27.152344 33.722656 27.136719 33.71875 27.117188 33.714844 C 27.097656 33.710938 24.882812 33.273438 20.605469 33.210938 C 16.234375 33.148438 12.5 31.242188 12.34375 31.160156 C 12.214844 31.09375 12.164062 30.933594 12.230469 30.800781 C 12.296875 30.671875 12.457031 30.621094 12.585938 30.6875 C 12.625 30.707031 16.371094 32.621094 20.613281 32.679688 C 24.949219 32.742188 27.132812 33.175781 27.222656 33.195312 C 27.367188 33.226562 27.457031 33.363281 27.429688 33.507812 Z M 22.394531 37.714844 C 22.421875 37.859375 22.324219 37.996094 22.179688 38.023438 C 21.34375 38.175781 20.527344 38.234375 19.757812 38.234375 C 17.046875 38.234375 14.960938 37.496094 14.851562 37.457031 C 14.714844 37.40625 14.640625 37.253906 14.691406 37.117188 C 14.742188 36.976562 14.890625 36.90625 15.03125 36.957031 C 15.0625 36.96875 18.4375 38.160156 22.085938 37.5 C 22.230469 37.476562 22.367188 37.570312 22.394531 37.714844 Z M 31.488281 32.511719 C 31.984375 34.1875 31.730469 36.191406 30.832031 37.621094 C 30.78125 37.699219 30.695312 37.742188 30.609375 37.742188 C 30.558594 37.742188 30.511719 37.730469 30.46875 37.703125 C 30.34375 37.625 30.304688 37.460938 30.382812 37.335938 C 31.203125 36.035156 31.4375 34.199219 30.980469 32.664062 C 30.722656 31.796875 30.128906 30.636719 28.773438 30.019531 C 26.671875 29.058594 25.296875 28.714844 23.390625 28.242188 C 22.691406 28.070312 21.902344 27.875 20.980469 27.621094 C 17.5625 26.691406 14.355469 24.738281 14.324219 24.71875 C 14.199219 24.640625 14.160156 24.476562 14.234375 24.351562 C 14.3125 24.226562 14.472656 24.1875 14.597656 24.265625 C 14.628906 24.285156 17.773438 26.199219 21.121094 27.109375 C 22.035156 27.359375 22.824219 27.554688 23.519531 27.726562 C 25.449219 28.207031 26.847656 28.554688 28.992188 29.535156 C 30.210938 30.089844 31.074219 31.121094 31.488281 32.511719 Z M 39.828125 11.429688 C 39.761719 11.472656 38.9375 11.988281 37.808594 12.523438 L 39.023438 12.484375 C 39.167969 12.472656 39.289062 12.59375 39.296875 12.738281 C 39.300781 12.886719 39.1875 13.007812 39.039062 13.011719 L 36.464844 13.101562 C 35.621094 13.421875 34.71875 13.683594 33.882812 13.761719 C 33.601562 13.789062 33.328125 13.800781 33.0625 13.800781 C 30.933594 13.800781 29.265625 13.046875 28.597656 12.695312 L 28.574219 12.679688 C 28.449219 12.625 28.386719 12.476562 28.4375 12.34375 C 28.488281 12.207031 28.640625 12.140625 28.777344 12.191406 C 28.785156 12.195312 28.808594 12.203125 28.847656 12.226562 C 29.554688 12.601562 31.457031 13.449219 33.832031 13.234375 C 36.308594 13.007812 39.515625 11 39.546875 10.980469 C 39.671875 10.902344 39.832031 10.941406 39.910156 11.0625 C 39.988281 11.1875 39.953125 11.351562 39.828125 11.429688 Z M 29.082031 6.152344 C 29.1875 6.039062 29.40625 6.070312 29.574219 6.222656 C 29.738281 6.378906 29.785156 6.597656 29.679688 6.710938 C 29.574219 6.824219 29.355469 6.792969 29.1875 6.636719 C 29.023438 6.484375 28.976562 6.265625 29.082031 6.152344 Z M 28.746094 8.292969 C 30.640625 9.355469 31.09375 7.035156 29.851562 5.96875 C 29.847656 5.96875 29.402344 5.6875 29.328125 5.667969 C 29.191406 5.628906 29.039062 5.605469 28.894531 5.601562 C 27.863281 5.46875 27.59375 7.644531 28.746094 8.292969 " fill-opacity="1" fill-rule="nonzero"/></svg>