<svg xmlns="http://www.w3.org/2000/svg" xmlns:xlink="http://www.w3.org/1999/xlink" width="200" zoomAndPan="magnify" viewBox="0 0 150 36.000001" height="48" preserveAspectRatio="xMidYMid meet" version="1.0"><defs><g/><clipPath id="fb3bad2837"><path d="M 115.328125 3.503906 L 135 3.503906 L 135 26.855469 L 115.328125 26.855469 Z M 115.328125 3.503906 " clip-rule="nonzero"/></clipPath><clipPath id="4780d80f20"><path d="M 118.5625 7.109375 L 134.929688 7.109375 L 134.929688 24.671875 L 118.5625 24.671875 Z M 118.5625 7.109375 " clip-rule="nonzero"/></clipPath></defs><g fill="#f8e505" fill-opacity="1"><g transform="translate(10.019957, 21.556243)"><g><path d="M 15.765625 -14.390625 L 14.859375 0.09375 L 10.359375 0.296875 L 10.390625 -7.34375 L 8.359375 -1.1875 L 6.625 -1.1875 L 5.0625 -6.6875 L 5.046875 -0.296875 L 0.484375 -0.15625 L 0.6875 -13.796875 L 5.75 -14 L 7.765625 -7.46875 L 10.453125 -14.390625 Z M 15.765625 -14.390625 "/></g></g></g><g fill="#f8e505" fill-opacity="1"><g transform="translate(25.595118, 21.556243)"><g><path d="M 9.859375 -14.234375 C 9.816406 -13.617188 9.773438 -13.003906 9.734375 -12.390625 C 9.703125 -11.785156 9.660156 -11.175781 9.609375 -10.5625 L 5.4375 -10.34375 L 5.328125 -9.109375 L 8.265625 -9.109375 L 8.0625 -6.046875 L 5.09375 -5.9375 L 5 -4.5 L 9.1875 -4.5 C 9.144531 -3.78125 9.101562 -3.0625 9.0625 -2.34375 C 9.019531 -1.632812 8.976562 -0.921875 8.9375 -0.203125 L 0.4375 0 L 0.75 -14.234375 Z M 9.859375 -14.234375 "/></g></g></g><g fill="#f8e505" fill-opacity="1"><g transform="translate(34.873257, 21.556243)"><g><path d="M 12.078125 -9.515625 C 12.078125 -9.003906 12.03125 -8.539062 11.9375 -8.125 C 11.851562 -7.707031 11.710938 -7.320312 11.515625 -6.96875 C 11.328125 -6.625 11.082031 -6.300781 10.78125 -6 C 10.476562 -5.707031 10.113281 -5.425781 9.6875 -5.15625 L 12.03125 -0.96875 L 7.59375 -0.09375 L 6.078125 -4.296875 L 4.84375 -4.265625 L 4.671875 -0.15625 L 0.421875 -0.15625 C 0.453125 -1.65625 0.484375 -3.148438 0.515625 -4.640625 C 0.546875 -6.128906 0.582031 -7.625 0.625 -9.125 C 0.632812 -9.875 0.644531 -10.617188 0.65625 -11.359375 C 0.675781 -12.109375 0.703125 -12.863281 0.734375 -13.625 C 1.203125 -13.789062 1.660156 -13.929688 2.109375 -14.046875 C 2.554688 -14.160156 3.003906 -14.25 3.453125 -14.3125 C 3.898438 -14.375 4.351562 -14.414062 4.8125 -14.4375 C 5.28125 -14.457031 5.757812 -14.46875 6.25 -14.46875 C 7 -14.46875 7.722656 -14.363281 8.421875 -14.15625 C 9.128906 -13.945312 9.75 -13.632812 10.28125 -13.21875 C 10.820312 -12.8125 11.253906 -12.296875 11.578125 -11.671875 C 11.910156 -11.054688 12.078125 -10.335938 12.078125 -9.515625 Z M 7.65625 -9.203125 C 7.65625 -9.472656 7.613281 -9.722656 7.53125 -9.953125 C 7.457031 -10.191406 7.347656 -10.394531 7.203125 -10.5625 C 7.054688 -10.726562 6.867188 -10.859375 6.640625 -10.953125 C 6.421875 -11.046875 6.164062 -11.09375 5.875 -11.09375 C 5.738281 -11.09375 5.609375 -11.082031 5.484375 -11.0625 C 5.359375 -11.050781 5.238281 -11.03125 5.125 -11 L 4.96875 -7.328125 L 5.203125 -7.328125 C 5.484375 -7.328125 5.769531 -7.363281 6.0625 -7.4375 C 6.351562 -7.507812 6.613281 -7.617188 6.84375 -7.765625 C 7.082031 -7.921875 7.273438 -8.113281 7.421875 -8.34375 C 7.578125 -8.582031 7.65625 -8.867188 7.65625 -9.203125 Z M 7.65625 -9.203125 "/></g></g></g><g fill="#f8e505" fill-opacity="1"><g transform="translate(46.717583, 21.556243)"><g><path d="M 10.28125 -13.875 L 9.734375 -9.71875 C 9.546875 -9.769531 9.351562 -9.804688 9.15625 -9.828125 C 8.96875 -9.847656 8.78125 -9.859375 8.59375 -9.859375 C 8.101562 -9.859375 7.632812 -9.789062 7.1875 -9.65625 C 6.75 -9.53125 6.359375 -9.332031 6.015625 -9.0625 C 5.679688 -8.800781 5.414062 -8.472656 5.21875 -8.078125 C 5.019531 -7.691406 4.921875 -7.226562 4.921875 -6.6875 C 4.921875 -6.351562 4.972656 -6.0625 5.078125 -5.8125 C 5.191406 -5.5625 5.34375 -5.351562 5.53125 -5.1875 C 5.726562 -5.019531 5.960938 -4.894531 6.234375 -4.8125 C 6.503906 -4.738281 6.800781 -4.703125 7.125 -4.703125 C 7.375 -4.703125 7.628906 -4.726562 7.890625 -4.78125 C 8.148438 -4.832031 8.40625 -4.898438 8.65625 -4.984375 C 8.914062 -5.066406 9.164062 -5.164062 9.40625 -5.28125 C 9.65625 -5.394531 9.882812 -5.507812 10.09375 -5.625 L 9.6875 -0.984375 C 9.4375 -0.859375 9.160156 -0.742188 8.859375 -0.640625 C 8.554688 -0.535156 8.25 -0.441406 7.9375 -0.359375 C 7.625 -0.285156 7.304688 -0.226562 6.984375 -0.1875 C 6.671875 -0.15625 6.367188 -0.140625 6.078125 -0.140625 C 5.242188 -0.140625 4.460938 -0.289062 3.734375 -0.59375 C 3.015625 -0.90625 2.390625 -1.332031 1.859375 -1.875 C 1.328125 -2.414062 0.90625 -3.050781 0.59375 -3.78125 C 0.289062 -4.519531 0.140625 -5.3125 0.140625 -6.15625 C 0.140625 -7.28125 0.300781 -8.34375 0.625 -9.34375 C 0.945312 -10.34375 1.421875 -11.21875 2.046875 -11.96875 C 2.671875 -12.71875 3.441406 -13.304688 4.359375 -13.734375 C 5.285156 -14.171875 6.351562 -14.390625 7.5625 -14.390625 C 8.019531 -14.390625 8.484375 -14.351562 8.953125 -14.28125 C 9.429688 -14.207031 9.875 -14.070312 10.28125 -13.875 Z M 10.28125 -13.875 "/></g></g></g><g fill="#f8e505" fill-opacity="1"><g transform="translate(56.716226, 21.556243)"><g><path d="M 12.953125 -0.84375 L 8.0625 -0.21875 L 7.46875 -2.453125 L 5.21875 -2.453125 L 4.71875 -0.21875 L -0.3125 -0.703125 L 3.609375 -13.859375 L 9.109375 -14.140625 Z M 7.109375 -5.46875 L 6.359375 -8.90625 L 5.625 -5.46875 Z M 7.109375 -5.46875 "/></g></g></g><g fill="#f8e505" fill-opacity="1"><g transform="translate(68.965215, 21.556243)"><g><path d="M 11.6875 -7.84375 C 11.6875 -6.914062 11.566406 -6.085938 11.328125 -5.359375 C 11.097656 -4.628906 10.769531 -3.984375 10.34375 -3.421875 C 9.914062 -2.859375 9.410156 -2.378906 8.828125 -1.984375 C 8.242188 -1.585938 7.601562 -1.257812 6.90625 -1 C 6.207031 -0.75 5.460938 -0.566406 4.671875 -0.453125 C 3.890625 -0.335938 3.082031 -0.28125 2.25 -0.28125 C 1.9375 -0.28125 1.628906 -0.285156 1.328125 -0.296875 C 1.035156 -0.316406 0.738281 -0.34375 0.4375 -0.375 L 0.703125 -13.234375 C 1.429688 -13.460938 2.175781 -13.625 2.9375 -13.71875 C 3.707031 -13.8125 4.472656 -13.859375 5.234375 -13.859375 C 6.171875 -13.859375 7.035156 -13.726562 7.828125 -13.46875 C 8.617188 -13.207031 9.300781 -12.820312 9.875 -12.3125 C 10.445312 -11.800781 10.890625 -11.171875 11.203125 -10.421875 C 11.523438 -9.671875 11.6875 -8.8125 11.6875 -7.84375 Z M 4.96875 -4.046875 C 5.363281 -4.109375 5.722656 -4.226562 6.046875 -4.40625 C 6.378906 -4.582031 6.660156 -4.804688 6.890625 -5.078125 C 7.128906 -5.347656 7.3125 -5.648438 7.4375 -5.984375 C 7.570312 -6.328125 7.640625 -6.6875 7.640625 -7.0625 C 7.640625 -7.4375 7.597656 -7.785156 7.515625 -8.109375 C 7.441406 -8.441406 7.316406 -8.726562 7.140625 -8.96875 C 6.960938 -9.207031 6.726562 -9.394531 6.4375 -9.53125 C 6.144531 -9.675781 5.789062 -9.757812 5.375 -9.78125 Z M 4.96875 -4.046875 "/></g></g></g><g fill="#f8e505" fill-opacity="1"><g transform="translate(80.355519, 21.556243)"><g><path d="M 12.265625 -13.90625 C 11.972656 -11.582031 11.722656 -9.273438 11.515625 -6.984375 C 11.304688 -4.691406 11.101562 -2.382812 10.90625 -0.0625 L 6.859375 0.234375 L 7.03125 -1.28125 C 6.90625 -1.132812 6.753906 -1.003906 6.578125 -0.890625 C 6.398438 -0.773438 6.210938 -0.679688 6.015625 -0.609375 C 5.816406 -0.546875 5.613281 -0.5 5.40625 -0.46875 C 5.195312 -0.4375 5 -0.425781 4.8125 -0.4375 C 4.363281 -0.4375 3.941406 -0.519531 3.546875 -0.6875 C 3.148438 -0.863281 2.785156 -1.085938 2.453125 -1.359375 C 2.128906 -1.640625 1.832031 -1.96875 1.5625 -2.34375 C 1.300781 -2.71875 1.078125 -3.109375 0.890625 -3.515625 C 0.710938 -3.929688 0.578125 -4.351562 0.484375 -4.78125 C 0.390625 -5.207031 0.34375 -5.617188 0.34375 -6.015625 C 0.34375 -6.609375 0.351562 -7.222656 0.375 -7.859375 C 0.40625 -8.492188 0.445312 -9.128906 0.5 -9.765625 C 0.5625 -10.410156 0.640625 -11.046875 0.734375 -11.671875 C 0.828125 -12.296875 0.945312 -12.894531 1.09375 -13.46875 C 1.894531 -13.425781 2.703125 -13.390625 3.515625 -13.359375 C 4.328125 -13.328125 5.132812 -13.316406 5.9375 -13.328125 C 5.78125 -12.753906 5.628906 -12.175781 5.484375 -11.59375 C 5.335938 -11.019531 5.203125 -10.441406 5.078125 -9.859375 C 4.960938 -9.285156 4.867188 -8.703125 4.796875 -8.109375 C 4.722656 -7.523438 4.6875 -6.9375 4.6875 -6.34375 C 4.6875 -6.195312 4.691406 -5.992188 4.703125 -5.734375 C 4.722656 -5.484375 4.757812 -5.234375 4.8125 -4.984375 C 4.863281 -4.734375 4.945312 -4.515625 5.0625 -4.328125 C 5.1875 -4.140625 5.351562 -4.046875 5.5625 -4.046875 C 5.8125 -4.046875 6.035156 -4.148438 6.234375 -4.359375 C 6.429688 -4.578125 6.601562 -4.867188 6.75 -5.234375 C 6.90625 -5.597656 7.035156 -6.015625 7.140625 -6.484375 C 7.253906 -6.960938 7.347656 -7.457031 7.421875 -7.96875 C 7.492188 -8.488281 7.550781 -9.007812 7.59375 -9.53125 C 7.644531 -10.0625 7.679688 -10.554688 7.703125 -11.015625 C 7.722656 -11.484375 7.738281 -11.898438 7.75 -12.265625 C 7.757812 -12.640625 7.765625 -12.925781 7.765625 -13.125 C 7.765625 -13.257812 7.757812 -13.390625 7.75 -13.515625 C 7.75 -13.640625 7.742188 -13.769531 7.734375 -13.90625 C 8.160156 -13.882812 8.582031 -13.867188 9 -13.859375 C 9.425781 -13.859375 9.851562 -13.859375 10.28125 -13.859375 C 10.601562 -13.859375 10.929688 -13.859375 11.265625 -13.859375 C 11.597656 -13.867188 11.929688 -13.882812 12.265625 -13.90625 Z M 12.265625 -13.90625 "/></g></g></g><g fill="#f8e505" fill-opacity="1"><g transform="translate(92.308411, 21.556243)"><g><path d="M 9.921875 -13.484375 L 9.5625 -9.3125 C 9.375 -9.375 9.1875 -9.410156 9 -9.421875 C 8.820312 -9.441406 8.632812 -9.453125 8.4375 -9.453125 C 7.96875 -9.453125 7.519531 -9.394531 7.09375 -9.28125 C 6.675781 -9.164062 6.300781 -8.984375 5.96875 -8.734375 C 5.644531 -8.492188 5.382812 -8.1875 5.1875 -7.8125 C 5 -7.4375 4.90625 -7 4.90625 -6.5 C 4.90625 -6.125 4.957031 -5.800781 5.0625 -5.53125 C 5.175781 -5.257812 5.332031 -5.03125 5.53125 -4.84375 C 5.726562 -4.664062 5.96875 -4.53125 6.25 -4.4375 C 6.539062 -4.34375 6.863281 -4.296875 7.21875 -4.296875 C 7.457031 -4.296875 7.707031 -4.320312 7.96875 -4.375 C 8.226562 -4.425781 8.484375 -4.492188 8.734375 -4.578125 C 8.992188 -4.660156 9.238281 -4.757812 9.46875 -4.875 C 9.707031 -4.988281 9.929688 -5.109375 10.140625 -5.234375 L 9.984375 -0.59375 C 9.722656 -0.457031 9.441406 -0.335938 9.140625 -0.234375 C 8.847656 -0.140625 8.546875 -0.0546875 8.234375 0.015625 C 7.921875 0.0976562 7.609375 0.15625 7.296875 0.1875 C 6.984375 0.226562 6.6875 0.25 6.40625 0.25 C 5.46875 0.25 4.613281 0.078125 3.84375 -0.265625 C 3.082031 -0.617188 2.425781 -1.09375 1.875 -1.6875 C 1.332031 -2.289062 0.90625 -2.988281 0.59375 -3.78125 C 0.289062 -4.582031 0.140625 -5.4375 0.140625 -6.34375 C 0.140625 -7.414062 0.289062 -8.421875 0.59375 -9.359375 C 0.90625 -10.296875 1.359375 -11.109375 1.953125 -11.796875 C 2.554688 -12.484375 3.296875 -13.019531 4.171875 -13.40625 C 5.046875 -13.800781 6.054688 -14 7.203125 -14 C 7.648438 -14 8.109375 -13.960938 8.578125 -13.890625 C 9.046875 -13.816406 9.492188 -13.679688 9.921875 -13.484375 Z M 9.921875 -13.484375 "/></g></g></g><g fill="#f8e505" fill-opacity="1"><g transform="translate(102.267574, 21.556243)"><g><path d="M 12.640625 -12.75 L 8.265625 -7.5625 L 12.28125 -0.765625 L 7.703125 0.046875 L 4.703125 -4.03125 L 4.546875 -0.15625 L 0.4375 0 L 0.75 -14.140625 L 5.34375 -13.875 L 5 -9.8125 L 7.859375 -13.9375 Z M 12.640625 -12.75 "/></g></g></g><path stroke-linecap="butt" transform="matrix(1.010682, 0, 0, 1.010682, 8.961899, 3.363968)" fill="none" stroke-linejoin="miter" d="M 16.641587 3.759931 L 15.744915 18.09895 L 11.292476 18.292199 L 11.331125 10.736192 L 9.317478 16.827377 L 7.601434 16.827377 L 6.055448 11.377777 L 6.036123 17.708589 L 1.525709 17.843863 L 1.718958 4.347406 L 6.739547 4.154157 L 8.733869 10.616379 L 11.3891 3.759931 Z M 26.20351 3.918394 C 26.16486 4.529059 26.130076 5.135858 26.095291 5.734928 C 26.064371 6.333997 26.021857 6.936932 25.967747 7.551461 L 21.82837 7.764034 L 21.731746 8.996958 L 24.642064 8.996958 L 24.425626 12.023226 L 21.495983 12.11985 L 21.399359 13.546022 L 25.538736 13.546022 C 25.500086 14.264905 25.461437 14.976059 25.418922 15.679482 C 25.376407 16.386771 25.337758 17.09406 25.306838 17.805213 L 16.888945 17.998461 L 17.198142 3.918394 Z M 37.581966 8.587272 C 37.581966 9.093582 37.535587 9.553513 37.450558 9.967064 C 37.361663 10.380616 37.222525 10.759382 37.033141 11.107229 C 36.843758 11.451211 36.600265 11.768138 36.302663 12.061875 C 36.001196 12.355613 35.641754 12.63389 35.216608 12.900573 L 37.543317 17.043815 L 33.148852 17.901837 L 31.641515 13.743135 L 30.431781 13.781785 L 30.257858 17.843863 L 26.056641 17.843863 C 26.091426 16.359716 26.122346 14.8833 26.1494 13.410748 C 26.18032 11.938196 26.215105 10.46178 26.253754 8.977633 C 26.265349 8.22783 26.276944 7.485757 26.292404 6.751414 C 26.303999 6.013205 26.331054 5.271132 26.369703 4.525194 C 26.825769 4.355135 27.274105 4.215997 27.718576 4.103913 C 28.159182 3.991829 28.603653 3.9068 29.051989 3.84496 C 29.49646 3.783121 29.948661 3.740606 30.408592 3.717416 C 30.868522 3.694226 31.336183 3.682632 31.819304 3.682632 C 32.561377 3.682632 33.280261 3.786986 33.972089 3.991829 C 34.663918 4.196672 35.278447 4.502004 35.811813 4.915555 C 36.349043 5.325242 36.774189 5.835417 37.098846 6.446081 C 37.419638 7.060611 37.581966 7.771764 37.581966 8.587272 Z M 33.206826 8.900334 C 33.206826 8.625922 33.168177 8.374699 33.094742 8.146666 C 33.017443 7.918633 32.909224 7.72152 32.762355 7.555326 C 32.615487 7.389133 32.433833 7.257724 32.21353 7.164965 C 31.997092 7.072206 31.742005 7.021961 31.448267 7.021961 C 31.316858 7.021961 31.189315 7.029691 31.065636 7.049016 C 30.941957 7.064476 30.822143 7.087666 30.706194 7.12245 L 30.54773 10.755517 L 30.783493 10.755517 C 31.065636 10.755517 31.347778 10.716868 31.63765 10.647298 C 31.927523 10.573864 32.19034 10.465645 32.418373 10.314911 C 32.650271 10.164178 32.839655 9.970929 32.986523 9.739031 C 33.133392 9.503269 33.206826 9.224991 33.206826 8.900334 Z M 47.534251 4.270106 L 46.985426 8.390159 C 46.796043 8.339914 46.606659 8.301265 46.417276 8.28194 C 46.231758 8.262615 46.042374 8.254885 45.852991 8.254885 C 45.369871 8.254885 44.913805 8.316724 44.477064 8.444268 C 44.040323 8.571812 43.653826 8.76506 43.317574 9.024013 C 42.985187 9.286831 42.71464 9.611488 42.517527 10.001849 C 42.320413 10.392211 42.219924 10.852141 42.219924 11.377777 C 42.219924 11.717893 42.274034 12.011631 42.382253 12.258989 C 42.486607 12.506346 42.641205 12.711189 42.834454 12.873518 C 43.031567 13.035847 43.263465 13.15566 43.530147 13.23296 C 43.79683 13.314124 44.086702 13.352774 44.407494 13.352774 C 44.647122 13.352774 44.898345 13.325719 45.161162 13.271609 C 45.420115 13.221365 45.675203 13.151795 45.93029 13.066766 C 46.185378 12.985602 46.432736 12.885113 46.672364 12.776894 C 46.915857 12.66481 47.13616 12.548861 47.337138 12.432912 L 46.946776 17.02449 C 46.691689 17.152034 46.417276 17.267983 46.119674 17.368472 C 45.825936 17.472826 45.520604 17.557855 45.207542 17.635155 C 44.89448 17.708589 44.581418 17.766563 44.272221 17.805213 C 43.959158 17.843863 43.657691 17.863188 43.371684 17.863188 C 42.544581 17.863188 41.775453 17.708589 41.05657 17.403257 C 40.341551 17.097925 39.719292 16.676643 39.193657 16.143278 C 38.664157 15.609913 38.250605 14.979924 37.949138 14.25331 C 37.643806 13.530562 37.493072 12.745974 37.493072 11.907277 C 37.493072 10.794167 37.651536 9.742896 37.972328 8.75733 C 38.289255 7.771764 38.760781 6.906012 39.379175 6.163939 C 39.997569 5.421866 40.762832 4.834391 41.678829 4.40538 C 42.590961 3.976369 43.646096 3.759931 44.836505 3.759931 C 45.284841 3.759931 45.748637 3.798581 46.220163 3.86815 C 46.691689 3.941584 47.12843 4.072993 47.534251 4.270106 Z M 60.060602 17.159764 L 55.217801 17.785888 L 54.634191 15.578993 L 52.404107 15.578993 L 51.917121 17.785888 L 46.935181 17.295038 L 50.823336 4.289431 L 56.253612 4.015019 Z M 54.28248 12.591376 L 53.540406 9.190206 L 52.817658 12.591376 Z M 70.932748 10.245342 C 70.932748 11.157474 70.812934 11.972981 70.581036 12.69573 C 70.345273 13.418478 70.016751 14.060062 69.599335 14.616617 C 69.178054 15.173172 68.679474 15.644698 68.099729 16.038924 C 67.519984 16.429286 66.88613 16.750078 66.194301 16.997435 C 65.506337 17.248658 64.771994 17.434176 63.991271 17.550125 C 63.214413 17.666074 62.414366 17.727914 61.594993 17.727914 C 61.289661 17.727914 60.992058 17.720184 60.698321 17.700859 C 60.404584 17.685399 60.103117 17.662209 59.797784 17.627425 L 60.072197 4.915555 C 60.787215 4.687522 61.525424 4.525194 62.282957 4.432435 C 63.044355 4.335811 63.798023 4.289431 64.543961 4.289431 C 65.475418 4.289431 66.33344 4.42084 67.114163 4.679793 C 67.894886 4.938745 68.56739 5.321377 69.135539 5.827687 C 69.699824 6.330132 70.14043 6.952392 70.457357 7.6906 C 70.774285 8.432673 70.932748 9.282966 70.932748 10.245342 Z M 64.292738 13.994358 C 64.6831 13.936383 65.038677 13.820434 65.359469 13.638781 C 65.684126 13.460993 65.962403 13.24069 66.194301 12.974007 C 66.430064 12.711189 66.611717 12.413587 66.735396 12.077335 C 66.86294 11.741083 66.928644 11.385507 66.928644 11.00674 C 66.928644 10.635703 66.889995 10.291721 66.808831 9.967064 C 66.731531 9.646272 66.603987 9.36413 66.430064 9.128367 C 66.252276 8.888739 66.024243 8.703221 65.738235 8.560217 C 65.448363 8.421078 65.096651 8.343779 64.6831 8.332184 Z M 82.778865 4.250781 C 82.485128 6.542706 82.233905 8.823035 82.025197 11.091769 C 81.816489 13.360504 81.619376 15.644698 81.429993 17.940487 L 77.425889 18.234224 L 77.603677 16.730753 C 77.472269 16.881487 77.321535 17.00903 77.147612 17.121114 C 76.973688 17.233198 76.792035 17.322093 76.594922 17.387797 C 76.401673 17.457366 76.200695 17.507611 75.991987 17.534666 C 75.783279 17.565585 75.582301 17.57718 75.396782 17.56945 C 74.952311 17.565585 74.534895 17.476691 74.144534 17.310498 C 73.754172 17.144304 73.394731 16.924001 73.070074 16.645724 C 72.745417 16.371311 72.451679 16.046654 72.192727 15.679482 C 71.929909 15.312311 71.713471 14.925814 71.531818 14.519993 C 71.354029 14.110307 71.218755 13.696755 71.122131 13.271609 C 71.029372 12.850328 70.979128 12.440642 70.979128 12.042551 C 70.979128 11.458941 70.990723 10.848276 71.013912 10.222152 C 71.037102 9.592163 71.079617 8.962174 71.137591 8.332184 C 71.195566 7.702195 71.272865 7.076071 71.365624 6.457676 C 71.462248 5.839282 71.578197 5.247942 71.721201 4.679793 C 72.517384 4.718442 73.313566 4.753227 74.117479 4.788012 C 74.917527 4.818931 75.71371 4.830526 76.509892 4.815066 C 76.359159 5.383216 76.208425 5.951366 76.065421 6.519516 C 75.918553 7.091531 75.787144 7.663545 75.66733 8.239425 C 75.551381 8.815305 75.458622 9.39505 75.385188 9.970929 C 75.311753 10.550674 75.276969 11.138149 75.276969 11.729488 C 75.276969 11.868627 75.284698 12.061875 75.296293 12.316963 C 75.311753 12.572051 75.342673 12.819408 75.400647 13.066766 C 75.454757 13.314124 75.539786 13.530562 75.65187 13.71608 C 75.767819 13.901599 75.930148 13.994358 76.138856 13.994358 C 76.386213 13.994358 76.606516 13.890004 76.799765 13.677431 C 76.996878 13.468723 77.170801 13.182715 77.31767 12.823273 C 77.468404 12.467697 77.595947 12.054145 77.704166 11.58262 C 77.812385 11.114959 77.90128 10.624108 77.978579 10.113933 C 78.052013 9.603758 78.113853 9.085852 78.160232 8.567947 C 78.202747 8.046177 78.237532 7.555326 78.260721 7.095396 C 78.283911 6.63933 78.299371 6.225778 78.310966 5.862472 C 78.318696 5.4953 78.326426 5.213158 78.326426 5.012179 C 78.326426 4.880771 78.322561 4.753227 78.314831 4.629548 C 78.307101 4.505869 78.299371 4.378325 78.283911 4.250781 C 78.709057 4.262376 79.130338 4.273971 79.54389 4.277836 C 79.961306 4.285566 80.382587 4.289431 80.803868 4.289431 C 81.13239 4.289431 81.457047 4.285566 81.785569 4.285566 C 82.114091 4.281701 82.446478 4.270106 82.778865 4.250781 Z M 92.278949 4.660468 L 91.927237 8.78052 C 91.737854 8.730276 91.552336 8.691626 91.370682 8.672301 C 91.189029 8.652976 91.003511 8.645246 90.814127 8.645246 C 90.354196 8.645246 89.91359 8.703221 89.492309 8.81917 C 89.071028 8.938984 88.699991 9.116772 88.379199 9.3564 C 88.054542 9.599893 87.799455 9.90136 87.606206 10.272397 C 87.416823 10.639568 87.320199 11.072444 87.320199 11.57489 C 87.320199 11.938196 87.374309 12.255124 87.478663 12.525671 C 87.586882 12.796219 87.74148 13.020387 87.938593 13.20204 C 88.139572 13.379828 88.379199 13.515102 88.661342 13.603996 C 88.943484 13.696755 89.260411 13.743135 89.604393 13.743135 C 89.844021 13.743135 90.091379 13.71608 90.346466 13.669701 C 90.601554 13.619456 90.852777 13.553752 91.107865 13.468723 C 91.362952 13.383693 91.606445 13.287069 91.842208 13.174985 C 92.074106 13.066766 92.294409 12.946952 92.495387 12.823273 L 92.336923 17.414852 C 92.085701 17.542396 91.811288 17.658344 91.517551 17.758834 C 91.223814 17.863188 90.922346 17.948217 90.613149 18.025516 C 90.303952 18.09895 89.994755 18.156925 89.685557 18.195575 C 89.37636 18.234224 89.082623 18.253549 88.804346 18.253549 C 87.880619 18.253549 87.038057 18.079626 86.280523 17.735644 C 85.519125 17.391662 84.869811 16.920136 84.324851 16.324932 C 83.783756 15.729727 83.362475 15.037898 83.061008 14.249445 C 82.763405 13.460993 82.612672 12.622295 82.612672 11.729488 C 82.612672 10.662758 82.763405 9.665597 83.064873 8.741871 C 83.370205 7.818144 83.814676 7.014231 84.406016 6.333997 C 84.99349 5.653764 85.723969 5.120399 86.589721 4.733902 C 87.459338 4.347406 88.460364 4.154157 89.585068 4.154157 C 90.033404 4.154157 90.48947 4.188942 90.953266 4.258511 C 91.413197 4.331946 91.857668 4.463354 92.278949 4.660468 Z M 104.82076 5.383216 L 100.503594 10.519754 L 104.469048 17.237063 L 99.935444 18.040976 L 96.967151 14.017548 L 96.812553 17.843863 L 92.750475 17.998461 L 93.063537 4.015019 L 97.6126 4.270106 L 97.260889 8.293535 L 100.093908 4.212132 Z M 104.82076 5.383216 " stroke="#19191b" stroke-width="1.1" stroke-opacity="1" stroke-miterlimit="4"/><g clip-path="url(#fb3bad2837)"><path fill="#f8e505" d="M 134.101562 24.089844 C 133.496094 24.820312 132.117188 25.304688 131.277344 25.648438 C 127.691406 27.117188 123.742188 26.800781 120.175781 25.414062 C 118.289062 24.683594 116.976562 24.054688 116.3125 22.230469 C 115.347656 19.589844 116.136719 16.660156 117.34375 14.234375 C 117.589844 13.746094 117.914062 13.160156 118.171875 12.75 C 119 11.433594 119.511719 11.253906 120.546875 12.515625 C 121.046875 13.125 123.125 15.8125 124.25 15.105469 C 124.992188 14.640625 122.320312 12.398438 122.039062 11.859375 C 121.113281 10.085938 120.621094 8.117188 121.355469 7.339844 C 122.703125 5.917969 123.351562 5.054688 125.488281 4.25 C 125.3125 4.109375 124.882812 3.796875 125.027344 3.503906 C 128.339844 3.683594 130.394531 3.828125 131.820312 7.203125 C 131.820312 7.203125 132.390625 8.90625 132.273438 9.492188 C 132.15625 10.082031 131.113281 12.394531 131.113281 12.394531 C 129.824219 15.472656 134.308594 16.9375 134.683594 20.0625 C 134.710938 21.175781 134.886719 23.144531 134.101562 24.089844 " fill-opacity="1" fill-rule="nonzero"/></g><path fill="#ffffff" d="M 129.101562 6.972656 C 129.007812 7.066406 128.820312 7.039062 128.679688 6.910156 C 128.539062 6.777344 128.496094 6.589844 128.585938 6.492188 C 128.679688 6.398438 128.867188 6.425781 129.007812 6.554688 C 129.148438 6.6875 129.191406 6.875 129.101562 6.972656 " fill-opacity="1" fill-rule="nonzero"/><g clip-path="url(#4780d80f20)"><path fill="#f47b06" d="M 123.046875 24.101562 C 122.601562 23.941406 122.101562 23.703125 121.789062 23.332031 C 121.660156 23.179688 121.550781 23.023438 121.503906 22.824219 C 121.480469 22.722656 121.582031 22.265625 121.550781 22.226562 C 121.40625 22.027344 120.535156 21.960938 120.261719 21.804688 C 119.828125 21.558594 119.46875 21.167969 119.375 20.667969 C 119.285156 20.171875 119.457031 19.699219 119.820312 19.355469 C 120.300781 18.90625 120.328125 19.125 120.003906 18.507812 C 119.78125 18.082031 119.578125 17.597656 119.542969 17.113281 C 119.527344 16.910156 119.605469 15.96875 119.855469 15.953125 C 119.089844 16 118.730469 16.59375 118.753906 17.296875 C 118.773438 17.945312 119.390625 18.535156 119.410156 19.09375 C 119.425781 19.46875 119.402344 19.269531 119.039062 19.613281 C 118.847656 19.792969 118.695312 20.019531 118.621094 20.269531 C 118.398438 21.007812 118.851562 21.703125 119.476562 22.0625 C 119.785156 22.234375 120.199219 22.230469 120.484375 22.394531 C 120.933594 22.65625 120.609375 22.40625 120.695312 22.96875 C 120.785156 23.554688 121.347656 23.929688 121.839844 24.175781 C 123.375 24.941406 125.261719 24.714844 126.808594 24.09375 C 125.566406 24.441406 124.28125 24.539062 123.046875 24.101562 Z M 134.910156 8.226562 C 134.84375 8.683594 134.671875 9.160156 134.332031 9.492188 C 134.265625 9.558594 133.691406 9.902344 133.761719 9.925781 C 134.941406 10.367188 134.269531 10.894531 133.402344 11.179688 C 132.761719 11.386719 132.054688 11.503906 131.519531 11.949219 C 131.027344 12.359375 131.113281 12.425781 130.402344 12.261719 C 129.835938 12.132812 129.273438 11.933594 128.785156 11.617188 C 128.039062 11.132812 127.09375 10.007812 127.574219 9.039062 C 128.007812 8.15625 129.429688 9.097656 130.148438 8.355469 C 130.5 7.992188 130.628906 7.320312 131.179688 7.152344 C 131.558594 7.039062 132.109375 7.277344 132.503906 7.304688 C 133.308594 7.359375 135.144531 6.628906 134.910156 8.226562 " fill-opacity="1" fill-rule="nonzero"/></g><path fill="#110f0d" d="M 127.859375 20.332031 C 127.847656 20.394531 127.792969 20.4375 127.730469 20.4375 C 127.722656 20.4375 127.710938 20.4375 127.703125 20.433594 C 127.691406 20.433594 126.578125 20.210938 124.421875 20.179688 C 122.222656 20.152344 120.339844 19.191406 120.257812 19.152344 C 120.195312 19.117188 120.167969 19.035156 120.203125 18.972656 C 120.234375 18.90625 120.316406 18.878906 120.382812 18.914062 C 120.402344 18.921875 122.289062 19.886719 124.425781 19.914062 C 126.609375 19.945312 127.710938 20.164062 127.757812 20.171875 C 127.828125 20.1875 127.875 20.257812 127.859375 20.332031 Z M 125.324219 22.441406 C 125.335938 22.515625 125.289062 22.585938 125.214844 22.597656 C 124.792969 22.675781 124.382812 22.703125 123.996094 22.703125 C 122.628906 22.703125 121.578125 22.332031 121.523438 22.3125 C 121.453125 22.289062 121.417969 22.210938 121.441406 22.140625 C 121.46875 22.074219 121.542969 22.039062 121.613281 22.0625 C 121.628906 22.066406 123.332031 22.667969 125.167969 22.335938 C 125.242188 22.324219 125.3125 22.371094 125.324219 22.441406 Z M 129.90625 19.828125 C 130.15625 20.671875 130.027344 21.679688 129.574219 22.394531 C 129.550781 22.4375 129.507812 22.457031 129.460938 22.457031 C 129.4375 22.457031 129.414062 22.449219 129.390625 22.4375 C 129.328125 22.398438 129.308594 22.316406 129.347656 22.253906 C 129.761719 21.597656 129.878906 20.675781 129.648438 19.90625 C 129.519531 19.472656 129.222656 18.890625 128.539062 18.578125 C 127.480469 18.09375 126.785156 17.921875 125.824219 17.6875 C 125.472656 17.597656 125.074219 17.5 124.613281 17.375 C 122.890625 16.90625 121.273438 15.925781 121.257812 15.914062 C 121.195312 15.878906 121.175781 15.796875 121.214844 15.734375 C 121.25 15.667969 121.332031 15.648438 121.394531 15.6875 C 121.410156 15.699219 122.996094 16.660156 124.679688 17.117188 C 125.140625 17.242188 125.539062 17.339844 125.890625 17.425781 C 126.863281 17.667969 127.566406 17.84375 128.648438 18.335938 C 129.261719 18.613281 129.695312 19.132812 129.90625 19.828125 Z M 134.105469 9.242188 C 134.074219 9.265625 133.660156 9.523438 133.089844 9.792969 L 133.703125 9.769531 C 133.773438 9.765625 133.835938 9.828125 133.839844 9.898438 C 133.839844 9.972656 133.785156 10.035156 133.710938 10.039062 L 132.414062 10.082031 C 131.988281 10.242188 131.535156 10.375 131.109375 10.414062 C 130.96875 10.425781 130.832031 10.433594 130.699219 10.433594 C 129.625 10.433594 128.785156 10.054688 128.449219 9.878906 L 128.4375 9.871094 C 128.375 9.84375 128.34375 9.769531 128.367188 9.703125 C 128.394531 9.632812 128.472656 9.597656 128.539062 9.625 C 128.542969 9.625 128.554688 9.632812 128.574219 9.640625 C 128.929688 9.832031 129.890625 10.257812 131.085938 10.148438 C 132.332031 10.035156 133.949219 9.027344 133.964844 9.015625 C 134.027344 8.976562 134.109375 8.996094 134.148438 9.058594 C 134.1875 9.121094 134.167969 9.203125 134.105469 9.242188 Z M 128.691406 6.59375 C 128.746094 6.535156 128.855469 6.550781 128.941406 6.628906 C 129.023438 6.707031 129.046875 6.816406 128.996094 6.871094 C 128.941406 6.929688 128.828125 6.914062 128.746094 6.835938 C 128.664062 6.757812 128.640625 6.648438 128.691406 6.59375 Z M 128.523438 7.667969 C 129.476562 8.199219 129.707031 7.035156 129.078125 6.5 C 129.078125 6.5 128.855469 6.359375 128.816406 6.347656 C 128.75 6.328125 128.671875 6.316406 128.597656 6.316406 C 128.078125 6.25 127.941406 7.339844 128.523438 7.667969 " fill-opacity="1" fill-rule="nonzero"/></svg>